<svg xmlns="http://www.w3.org/2000/svg" width="833.377" height="796.067" viewBox="0 0 833.377 796.067">
  <g id="Group_66" data-name="Group 66" transform="translate(476.637 42.788)">
    <path id="Path_24" data-name="Path 24" d="M342.1,453.265l-225.1,276.067a65.058,65.058,0,0,1-60.815,23.11l-351.63-56.908a65.059,65.059,0,0,1-50.422-41.112L-472.393,321.448A65.057,65.057,0,0,1-462,257.226L-236.9-18.841a65.058,65.058,0,0,1,60.815-23.11l351.63,56.908a65.059,65.059,0,0,1,50.422,41.112L352.5,389.043A65.059,65.059,0,0,1,342.1,453.265Z" transform="translate(0 0)" fill="#fddc2b"/>
  </g>
</svg>
