<svg xmlns="http://www.w3.org/2000/svg" width="220.131" height="388.991" viewBox="0 0 220.131 388.991">
  <g id="GssdE1" transform="translate(-50.622 -25.136)">
    <g id="Group_40" data-name="Group 40" transform="translate(50.622 25.137)">
      <g id="Group_39" data-name="Group 39">
        <path id="Path_16" data-name="Path 16" d="M259.414,105.54c-6,4.278-11.9,8.9-18.216,12.876-8.48,5.335-18,8.351-27.576,11.432a69.986,69.986,0,0,1-23.832,2.987c-19.836-.581-32.929-10.464-40.352-27.817-3.556-8.316-5.352-17.083-6.7-25.957a3.99,3.99,0,0,1,3.163-4.695c2.066-.282,3.838,1.256,4.407,3.6,1.808,7.418,3.087,15.035,5.669,22.189,4.724,13.093,13.75,22.271,28.6,24.36a68.96,68.96,0,0,0,16.825.1,86.983,86.983,0,0,0,54.2-26.256c1.637-1.673,2.852-3.721,4.384-5.493,2.447-2.846,1.984-6.221,1.96-9.448a3.81,3.81,0,0,0-2.019-2.629c-2.922-1.432-5.886-3.151-9.043-3.709-17.259-3.046-34.12-.751-50.663,4.824a143.187,143.187,0,0,0-27.7,13c-2.705,1.62-4.847,1.2-6.279-1.127-1.238-2.007-.534-4,2.077-5.546,18.222-10.8,37.712-18.034,59.032-19.947a96.35,96.35,0,0,1,25.364.986,27.457,27.457,0,0,1,12.042,5.094c4.4,3.351,5.91,7.641,5.335,13.134-2.846,27.2-12,52.847-20.787,78.651-2.2,6.473-6.221,10.329-11.778,13.416a137.93,137.93,0,0,1-29.314,11.749c-10.763,3.075-21.667,5.693-32.541,8.375A223.712,223.712,0,0,1,115.686,206a66.431,66.431,0,0,1-12.835-2.036,12.618,12.618,0,0,1-7.57-5.481c-1.755-2.494-4.149-4.566-6.227-6.854C77.64,179.1,66.683,166.2,57.834,151.814c-2.788-4.536-4.648-9.619-6.761-14.519-.9-2.072.07-3.773,1.808-5.282a60.648,60.648,0,0,1,27.066-13.2c9.988-2.213,20.135-3.774,30.247-5.4,8.58-1.379,17.066-2.993,25.188-6.162,2.776-1.086,5.288-.317,6.068,1.755.816,2.148-.417,4.266-3.234,5.293-8.7,3.187-17.729,4.941-26.861,6.391-10.5,1.678-21.033,3.363-31.426,5.6a53.68,53.68,0,0,0-19.519,9.026c-1.408.992-1.69,1.854-1,3.427,3.65,8.281,8.8,15.693,14.5,22.682,8.627,10.575,17.952,20.628,26.438,31.3,2.917,3.674,6.432,4.437,10.475,4.848,12.383,1.244,24.736.293,37.054-1.221a348.114,348.114,0,0,0,47.494-9.237c13.826-3.7,27.465-7.987,39.942-15.153A27.007,27.007,0,0,0,237.9,170.3c1.585-1.162,3.128-2.271,3.069-4.589-.029-1.062.816-2.142,1.227-3.228a445.124,445.124,0,0,0,17-55.71C259.308,106.262,259.378,105.74,259.414,105.54Z" transform="translate(-50.086 182.904)" fill="#070707"/>
        <path id="Path_17" data-name="Path 17" d="M225.87,77.97c-5.939,3.046-11.291,6.109-16.907,8.615-13.222,5.886-27.083,10.047-41.121,13.556-16.344,4.09-32.717,8.063-49.49,10.153-17,2.124-34,3.515-51.033,1.4a38.213,38.213,0,0,1-10.446-2.805c-7.124-3.1-8.251-9.525-2.9-15.147,4.971-5.229,11.391-8.4,17.911-11.332,12.259-5.5,25.059-9.525,38.011-13.1,3.369-.933,6.708-2.048,10.141-2.664a6.851,6.851,0,0,1,4.525.986c.851.558,1.567,2.523,1.174,3.333a6.342,6.342,0,0,1-3.451,3.016c-8.058,2.435-16.256,4.431-24.29,6.925C86.374,84.514,74.936,88.61,64.5,94.931a39.2,39.2,0,0,0-5.223,4.014c-1.373,1.185-1.139,2.435.581,2.946a63.421,63.421,0,0,0,9.6,2.389c12.887,1.708,25.81.816,38.7-.569A411.648,411.648,0,0,0,172.284,91.4c15.041-4.09,29.877-8.821,43.568-16.379a44.436,44.436,0,0,0,6.279-4.214c3.093-2.471,2.805-4.73-.986-5.417a123.339,123.339,0,0,0-18.779-2.248c-18.815-.475-37.395,2.177-55.886,5.522-1.25.223-2.5.522-3.762.651a3.992,3.992,0,0,1-4.3-2.84,4.029,4.029,0,0,1,3.063-4.372,7,7,0,0,1,.7-.141c19.671-3.492,39.425-6.35,59.431-6.168a121.381,121.381,0,0,1,19.536,2.066c2.893.5,5.657,2.242,8.175,3.856,2.212,1.414,2.934,3.832,2.764,6.479a17.009,17.009,0,0,0,.2,4.3c1.127,5.786,2.253,11.579,3.6,17.318.957,4.079-.27,7.389-3.157,10.329-4.542,4.624-10.252,7.57-16.1,10.252-14.619,6.7-29.953,11.379-45.517,15.382-3.151.816-6.315,1.62-9.507,2.271-23.551,4.795-47.242,8.639-71.292,9.255-7.488.194-15.018-.657-22.471-1.461a20.363,20.363,0,0,1-8.116-2.946,12.23,12.23,0,0,1-4.061-5.047c-.88-1.79.282-3.5,2.072-4.4a3.26,3.26,0,0,1,4.525,1.32,6.976,6.976,0,0,0,5.722,3.551c6.274.728,12.582,1.626,18.885,1.608,23.463-.07,46.55-3.627,69.425-8.68a336.49,336.49,0,0,0,51.808-15.37,70.222,70.222,0,0,0,17.87-9.724c2.06-1.626,2.881-3.333,2.212-5.98C227.167,86.134,226.6,81.967,225.87,77.97Z" transform="translate(-50.622 124.106)" fill="#070707"/>
        <path id="Path_18" data-name="Path 18" d="M128.105,25.233c4.12-.552,7.113,1.3,9.284,4.337s2.124,6.315-.076,9.472q-10.968,15.74-21.972,31.467-17.755,25.414-35.5,50.845c-1.191,1.714-2.565,2.958-4.865,2.67-2.776-.346-4.073-2.635-2.717-5.041.91-1.62,2.072-3.116,3.14-4.648Q102.336,75.771,129.25,37.2c.816-1.174,2.682-2.664.81-3.926-1.9-1.273-2.664.9-3.486,2.1q-27.623,39.78-55.212,79.6a22.835,22.835,0,0,1-1.367,1.9,3.8,3.8,0,0,1-4.906.91,3.468,3.468,0,0,1-1.168-4.83,14.877,14.877,0,0,1,.9-1.367Q93.02,70.9,121.2,30.227A11.345,11.345,0,0,1,128.105,25.233Z" transform="translate(11.627 -25.136)" fill="#070707"/>
        <path id="Path_19" data-name="Path 19" d="M74.358,49.115c1.361.54,2.735,1.045,4.073,1.631,9.067,3.985,16.162,10.27,22.13,17.817,1.631,2.054.992,4.865-1.3,6.479-1.5,1.062-3.6.387-5.211-1.743C89.276,67,83.554,61.72,76.171,58.346a25.975,25.975,0,0,0-6.937-2.236A18.509,18.509,0,0,0,63,56.638c-2.036.428-3.627.235-4.724-1.555-1.05-1.708-.792-3.938,1.133-4.795A41.942,41.942,0,0,1,67.3,48.117a7.545,7.545,0,0,1,2.277.035c.111-1.678-.376-3.762.487-4.824.933-1.15,3.122-1.373,4.783-1.948a2.5,2.5,0,0,1,1.18-.018c15.164,2.547,27.465,9.19,34.267,23.046,3.85,7.84,2.793,15.957-.5,23.9a25.731,25.731,0,0,1-2.054,4.173c-4.413,6.86-5.5,14.325-4.783,22.148.117,1.3.035,2.623.27,3.9.417,2.183-.822,3.157-2.7,3.639-2.013.522-4.143-.552-4.413-2.435-1.438-10.123-1.948-20.17,3.82-29.542a31.024,31.024,0,0,0,4.906-13.134c.681-6.549-1.584-12.06-6.05-16.761-5.781-6.08-13.04-9.754-21.344-11.6a20.763,20.763,0,0,0-2.975-.229Z" transform="translate(-16.352 53.559)" fill="#070707"/>
        <path id="Path_20" data-name="Path 20" d="M63.05,54.571c1.526,1.708,2.964,3.5,4.6,5.106,7.694,7.529,15.634,14.836,23.128,22.541,14.548,14.953,22.618,32.97,25.581,53.275a12.7,12.7,0,0,0,.563,2.923,2.479,2.479,0,0,1-1.185,3.521c-1.567.833-3.257.775-4.313-.587a8.054,8.054,0,0,1-1.5-3.732,91.9,91.9,0,0,0-12.864-36.579c-5.7-9.114-13.592-16.332-21.426-23.633-5.211-4.859-10.47-9.689-15.387-14.824a21.672,21.672,0,0,1-4.437-7.412c-1.3-3.527.751-6.714,4.46-7.993,4.507-1.549,8.967-.974,13.3.417,11.021,3.545,19.1,10.751,25.751,19.619a3.672,3.672,0,0,1-.857,5.147,3.971,3.971,0,0,1-5.522-.692c-2.148-2.324-4.1-4.836-6.367-7.042-4.783-4.654-10.258-8.357-16.966-10.012a50.39,50.39,0,0,0-6.209-.763Z" transform="translate(-27.245 77.663)" fill="#070707"/>
        <path id="Path_21" data-name="Path 21" d="M62.928,44.473a24.971,24.971,0,0,1,12.212,1.7c10.2,3.8,17.964,10.575,24.484,18.815,1.59,2.007.816,4.994-1.467,6.45-1.485.945-3.515.288-5.035-1.72-4.871-6.426-10.669-11.878-18.281-15.153a42.645,42.645,0,0,0-9.073-2.336,8.061,8.061,0,0,0-3.65.657c-2.148.693-3.92.2-4.906-1.543A3.421,3.421,0,0,1,58.444,46.5,34.4,34.4,0,0,1,62.928,44.473Z" transform="translate(-21.108 68.107)" fill="#070707"/>
      </g>
    </g>
  </g>
</svg>
